<?xml version="1.0" encoding="UTF-8"?><svg xmlns="http://www.w3.org/2000/svg" viewBox="0 0 193.32 32"><defs><style>.d{fill:#fff;}.e{fill:#8548e8;}</style></defs><g id="a"/><g id="b"><g id="c"><path class="d" d="M52.82,24h-3.43l-1.32-3.86h-6.07l-1.32,3.86h-3.38l5.78-15.84h3.96l5.78,15.84Zm-10.08-6.31h4.58l-2.3-6.91-2.28,6.91Zm17.24-5.93c1.07,0,1.98,.16,2.71,.48,.75,.3,1.35,.73,1.8,1.27,.46,.53,.79,1.12,.98,1.78l-3.07,1.1c-.16-.72-.43-1.26-.82-1.63-.38-.37-.9-.55-1.56-.55-.61,0-1.13,.14-1.56,.43-.43,.27-.76,.7-.98,1.27-.22,.56-.34,1.26-.34,2.11s.11,1.55,.34,2.11c.24,.56,.58,.98,1.01,1.25,.45,.27,.97,.41,1.56,.41,.48,0,.89-.08,1.22-.24,.34-.18,.61-.42,.82-.74,.22-.32,.38-.7,.46-1.15l2.98,.96c-.18,.72-.5,1.35-.98,1.9-.48,.54-1.1,.97-1.85,1.27-.75,.3-1.62,.46-2.62,.46-1.23,0-2.32-.25-3.26-.74s-1.67-1.21-2.18-2.14c-.51-.93-.77-2.05-.77-3.36s.26-2.43,.77-3.36c.51-.93,1.23-1.64,2.16-2.14,.93-.5,1.99-.74,3.19-.74Zm20.31,.24l-5.54,5.78-.65,.31-3.6,3.86-.05-3.5,6.1-6.46h3.74Zm-8.93-5.26V24h-3.29V6.74h3.29Zm3.84,9.07l5.38,8.18h-3.72l-3.91-6.26,2.26-1.92Zm7.31,8.18V12h2.95l.19,3.6-.41-.38c.19-.78,.5-1.43,.91-1.94s.92-.89,1.51-1.13c.61-.26,1.27-.38,1.99-.38,.83,0,1.57,.16,2.21,.48,.66,.32,1.17,.81,1.54,1.46,.38,.64,.58,1.45,.58,2.42v7.87h-3.29v-6.94c0-1.02-.2-1.73-.6-2.11-.4-.4-.92-.6-1.56-.6-.45,0-.89,.11-1.32,.34-.42,.21-.76,.55-1.03,1.03-.26,.48-.38,1.12-.38,1.92v6.36h-3.29Zm20.33-12.24c1.22,0,2.28,.25,3.19,.74,.93,.5,1.65,1.21,2.16,2.14,.53,.93,.79,2.05,.79,3.36s-.26,2.42-.79,3.36c-.51,.93-1.23,1.64-2.16,2.14-.91,.5-1.98,.74-3.19,.74s-2.26-.25-3.19-.74c-.93-.5-1.66-1.21-2.18-2.14-.51-.94-.77-2.06-.77-3.36s.26-2.43,.77-3.36c.53-.93,1.26-1.64,2.18-2.14,.93-.5,1.99-.74,3.19-.74Zm0,2.45c-.61,0-1.13,.14-1.56,.43-.42,.27-.74,.69-.96,1.25-.22,.56-.34,1.26-.34,2.11s.11,1.55,.34,2.11c.22,.56,.54,.98,.96,1.27,.43,.27,.95,.41,1.56,.41s1.1-.14,1.51-.41c.43-.29,.76-.71,.98-1.27,.22-.56,.34-1.26,.34-2.11s-.11-1.55-.34-2.11c-.22-.56-.55-.98-.98-1.25-.42-.29-.92-.43-1.51-.43Zm24.05-2.21h3.5l-3.84,12h-3.79l-2.62-8.16-2.52,8.16h-3.79l-3.84-12h3.5l2.4,9.19,2.66-9.19h3.26l2.69,9.19,2.38-9.19Zm8.78-5.26v13.56c0,.56,.1,.95,.29,1.18,.19,.22,.51,.34,.96,.34,.27,0,.5-.02,.67-.05,.18-.05,.4-.11,.67-.19l-.29,2.16c-.27,.16-.62,.28-1.03,.36-.4,.1-.8,.14-1.2,.14-1.17,0-2.02-.28-2.57-.84-.53-.58-.79-1.49-.79-2.74V6.74h3.29Zm9.99,17.5c-1.26,0-2.37-.25-3.31-.74-.93-.5-1.65-1.21-2.16-2.14-.51-.93-.77-2.05-.77-3.36s.26-2.43,.77-3.36c.51-.93,1.22-1.64,2.14-2.14,.93-.5,1.98-.74,3.17-.74s2.25,.25,3.1,.74c.85,.48,1.5,1.14,1.94,1.99,.45,.83,.67,1.78,.67,2.86,0,.32,0,.62-.02,.91-.02,.29-.04,.54-.07,.77h-9.58v-2.28h8.14l-1.58,.58c0-1.01-.23-1.78-.7-2.33-.45-.54-1.09-.82-1.92-.82-.61,0-1.14,.14-1.58,.43-.43,.29-.76,.72-.98,1.3-.22,.56-.34,1.27-.34,2.14s.12,1.55,.36,2.11c.26,.54,.61,.95,1.06,1.22,.46,.27,1.02,.41,1.66,.41,.7,0,1.27-.14,1.7-.41,.43-.27,.77-.65,1.01-1.13l2.62,1.01c-.26,.62-.65,1.16-1.18,1.61-.51,.45-1.13,.79-1.85,1.03-.7,.22-1.46,.34-2.28,.34Zm12.87,0c-.99,0-1.88-.25-2.66-.74-.77-.5-1.38-1.21-1.82-2.14-.43-.93-.65-2.04-.65-3.34s.23-2.46,.7-3.38c.46-.94,1.09-1.66,1.87-2.14,.8-.5,1.7-.74,2.69-.74,1.06,0,1.93,.3,2.62,.91,.69,.61,1.14,1.39,1.34,2.35l-.31,.38V6.74h3.29V24h-2.95l-.22-3.65,.41,.19c-.11,.75-.37,1.41-.77,1.97-.4,.54-.9,.97-1.51,1.27-.61,.3-1.28,.46-2.02,.46Zm.96-2.52c.58,0,1.07-.14,1.49-.43,.42-.3,.74-.74,.96-1.32,.24-.58,.36-1.26,.36-2.06s-.11-1.42-.34-1.94c-.22-.54-.54-.96-.96-1.25s-.9-.43-1.46-.43c-.9,0-1.6,.32-2.11,.96-.5,.62-.74,1.54-.74,2.76s.25,2.14,.74,2.78c.5,.62,1.18,.94,2.06,.94Zm20.61-12.58l.38,2.35h-.22c-.06-.02-.14-.02-.22-.02-.74,0-1.29,.17-1.66,.5-.37,.32-.55,.77-.55,1.34l-1.34-.55c0-.64,.13-1.23,.38-1.78,.26-.56,.63-1.01,1.13-1.34,.51-.34,1.12-.5,1.82-.5h.26Zm-3.94,12.6c1.3,0,2.3,.28,3,.84,.7,.56,1.06,1.34,1.06,2.35,0,.91-.26,1.68-.79,2.3-.53,.64-1.27,1.12-2.23,1.44-.94,.32-2.04,.48-3.29,.48-2.06,0-3.58-.29-4.54-.86-.94-.58-1.42-1.33-1.42-2.26,0-.66,.25-1.21,.74-1.66,.51-.45,1.35-.7,2.52-.74l-.12,.38c-.83-.14-1.47-.42-1.92-.82-.43-.42-.65-.98-.65-1.7s.28-1.34,.84-1.8c.58-.48,1.35-.76,2.33-.84l1.44,.67h-.34c-.69,.05-1.18,.19-1.46,.43-.27,.22-.41,.48-.41,.77,0,.34,.13,.59,.38,.77,.27,.16,.66,.24,1.15,.24h3.7Zm-2.23,5.16c.83,0,1.51-.07,2.04-.22,.54-.14,.94-.33,1.2-.55,.27-.22,.41-.47,.41-.74,0-.3-.12-.55-.36-.74-.24-.18-.67-.26-1.3-.26h-4.06c-.38,0-.7,.1-.96,.29-.24,.19-.36,.46-.36,.79,0,.45,.3,.8,.89,1.06,.61,.26,1.44,.38,2.5,.38Zm.02-15.14c1.12,0,2.09,.17,2.9,.5,.83,.32,1.46,.78,1.9,1.39,.45,.61,.67,1.34,.67,2.18s-.22,1.55-.67,2.16c-.43,.61-1.06,1.08-1.9,1.42-.82,.32-1.78,.48-2.9,.48-1.78,0-3.14-.36-4.08-1.08-.93-.74-1.39-1.73-1.39-2.98,0-.85,.22-1.58,.65-2.18,.45-.61,1.08-1.07,1.9-1.39,.82-.34,1.79-.5,2.93-.5Zm0,2.06c-.64,0-1.17,.18-1.58,.53s-.62,.84-.62,1.46,.21,1.12,.62,1.49c.42,.35,.94,.53,1.58,.53s1.16-.18,1.56-.53c.42-.37,.62-.86,.62-1.49s-.21-1.11-.62-1.46c-.4-.35-.92-.53-1.56-.53Zm13.82,10.42c-1.26,0-2.37-.25-3.31-.74-.93-.5-1.65-1.21-2.16-2.14-.51-.93-.77-2.05-.77-3.36s.26-2.43,.77-3.36c.51-.93,1.22-1.64,2.14-2.14,.93-.5,1.98-.74,3.17-.74s2.25,.25,3.1,.74c.85,.48,1.5,1.14,1.94,1.99,.45,.83,.67,1.78,.67,2.86,0,.32,0,.62-.02,.91-.02,.29-.04,.54-.07,.77h-9.58v-2.28h8.14l-1.58,.58c0-1.01-.23-1.78-.7-2.33-.45-.54-1.09-.82-1.92-.82-.61,0-1.14,.14-1.58,.43-.43,.29-.76,.72-.98,1.3-.22,.56-.34,1.27-.34,2.14s.12,1.55,.36,2.11c.26,.54,.61,.95,1.06,1.22,.46,.27,1.02,.41,1.66,.41,.7,0,1.27-.14,1.7-.41,.43-.27,.77-.65,1.01-1.13l2.62,1.01c-.26,.62-.65,1.16-1.18,1.61-.51,.45-1.13,.79-1.85,1.03-.7,.22-1.46,.34-2.28,.34Z"/><path class="e" d="M0,17.67L8.78,8.84,17.57,0h9.43V8.25h-6.04l-12.76,12.84v2.67H27v8.25H0v-14.33ZM9.37,8.25H0V0H9.37V8.25Z"/></g></g></svg>