<svg width="195" height="32" viewBox="0 0 195 32" fill="none" xmlns="http://www.w3.org/2000/svg">
<path d="M52.816 24H49.384L48.064 20.136H41.992L40.672 24H37.288L43.072 8.16H47.032L52.816 24ZM42.736 17.688H47.32L45.016 10.776L42.736 17.688ZM59.9729 11.76C61.0449 11.76 61.9489 11.92 62.6849 12.24C63.4369 12.544 64.0369 12.968 64.4849 13.512C64.9489 14.04 65.2769 14.632 65.4689 15.288L62.3969 16.392C62.2369 15.672 61.9649 15.128 61.5809 14.76C61.1969 14.392 60.6769 14.208 60.0209 14.208C59.4129 14.208 58.8929 14.352 58.4609 14.64C58.0289 14.912 57.7009 15.336 57.4769 15.912C57.2529 16.472 57.1409 17.176 57.1409 18.024C57.1409 18.872 57.2529 19.576 57.4769 20.136C57.7169 20.696 58.0529 21.112 58.4849 21.384C58.9329 21.656 59.4529 21.792 60.0449 21.792C60.5249 21.792 60.9329 21.712 61.2689 21.552C61.6049 21.376 61.8769 21.128 62.0849 20.808C62.3089 20.488 62.4609 20.104 62.5409 19.656L65.5169 20.616C65.3409 21.336 65.0129 21.968 64.5329 22.512C64.0529 23.056 63.4369 23.48 62.6849 23.784C61.9329 24.088 61.0609 24.24 60.0689 24.24C58.8369 24.24 57.7489 23.992 56.8049 23.496C55.8609 23 55.1329 22.288 54.6209 21.36C54.1089 20.432 53.8529 19.312 53.8529 18C53.8529 16.688 54.1089 15.568 54.6209 14.64C55.1329 13.712 55.8529 13 56.7809 12.504C57.7089 12.008 58.7729 11.76 59.9729 11.76ZM80.2878 12L74.7438 17.784L74.0958 18.096L70.4958 21.96L70.4478 18.456L76.5438 12H80.2878ZM71.3598 6.744V24H68.0718V6.744H71.3598ZM75.1998 15.816L80.5758 24H76.8558L72.9438 17.736L75.1998 15.816ZM82.5093 24V12H85.4613L85.6533 15.6L85.2453 15.216C85.4373 14.432 85.7413 13.784 86.1573 13.272C86.5733 12.76 87.0773 12.384 87.6693 12.144C88.2773 11.888 88.9413 11.76 89.6613 11.76C90.4933 11.76 91.2293 11.92 91.8693 12.24C92.5253 12.56 93.0373 13.048 93.4053 13.704C93.7893 14.344 93.9813 15.152 93.9813 16.128V24H90.6933V17.064C90.6933 16.04 90.4933 15.336 90.0933 14.952C89.6933 14.552 89.1733 14.352 88.5333 14.352C88.0853 14.352 87.6453 14.464 87.2133 14.688C86.7973 14.896 86.4533 15.24 86.1813 15.72C85.9253 16.2 85.7973 16.84 85.7973 17.64V24H82.5093ZM102.841 11.76C104.057 11.76 105.121 12.008 106.033 12.504C106.961 13 107.681 13.712 108.193 14.64C108.721 15.568 108.985 16.688 108.985 18C108.985 19.296 108.721 20.416 108.193 21.36C107.681 22.288 106.961 23 106.033 23.496C105.121 23.992 104.057 24.24 102.841 24.24C101.641 24.24 100.577 23.992 99.6486 23.496C98.7206 23 97.9926 22.288 97.4646 21.36C96.9526 20.416 96.6966 19.296 96.6966 18C96.6966 16.688 96.9526 15.568 97.4646 14.64C97.9926 13.712 98.7206 13 99.6486 12.504C100.577 12.008 101.641 11.76 102.841 11.76ZM102.841 14.208C102.233 14.208 101.713 14.352 101.281 14.64C100.865 14.912 100.545 15.328 100.321 15.888C100.097 16.448 99.9846 17.152 99.9846 18C99.9846 18.848 100.097 19.552 100.321 20.112C100.545 20.672 100.865 21.096 101.281 21.384C101.713 21.656 102.233 21.792 102.841 21.792C103.433 21.792 103.937 21.656 104.353 21.384C104.785 21.096 105.113 20.672 105.337 20.112C105.561 19.552 105.673 18.848 105.673 18C105.673 17.152 105.561 16.448 105.337 15.888C105.113 15.328 104.785 14.912 104.353 14.64C103.937 14.352 103.433 14.208 102.841 14.208ZM126.888 12H130.392L126.552 24H122.76L120.144 15.84L117.624 24H113.832L109.992 12H113.496L115.896 21.192L118.56 12H121.824L124.512 21.192L126.888 12ZM135.671 6.744V20.304C135.671 20.864 135.767 21.256 135.959 21.48C136.151 21.704 136.471 21.816 136.919 21.816C137.191 21.816 137.415 21.8 137.591 21.768C137.767 21.72 137.991 21.656 138.263 21.576L137.975 23.736C137.703 23.896 137.359 24.016 136.943 24.096C136.543 24.192 136.143 24.24 135.743 24.24C134.575 24.24 133.719 23.96 133.175 23.4C132.647 22.824 132.383 21.912 132.383 20.664V6.744H135.671ZM145.663 24.24C144.399 24.24 143.295 23.992 142.351 23.496C141.423 23 140.703 22.288 140.191 21.36C139.679 20.432 139.423 19.312 139.423 18C139.423 16.688 139.679 15.568 140.191 14.64C140.703 13.712 141.415 13 142.327 12.504C143.255 12.008 144.311 11.76 145.495 11.76C146.711 11.76 147.743 12.008 148.591 12.504C149.439 12.984 150.087 13.648 150.535 14.496C150.983 15.328 151.207 16.28 151.207 17.352C151.207 17.672 151.199 17.976 151.183 18.264C151.167 18.552 151.143 18.808 151.111 19.032H141.535V16.752H149.671L148.087 17.328C148.087 16.32 147.855 15.544 147.391 15C146.943 14.456 146.303 14.184 145.471 14.184C144.863 14.184 144.335 14.328 143.887 14.616C143.455 14.904 143.127 15.336 142.903 15.912C142.679 16.472 142.567 17.184 142.567 18.048C142.567 18.896 142.687 19.6 142.927 20.16C143.183 20.704 143.535 21.112 143.983 21.384C144.447 21.656 144.999 21.792 145.639 21.792C146.343 21.792 146.911 21.656 147.343 21.384C147.775 21.112 148.111 20.736 148.351 20.256L150.967 21.264C150.711 21.888 150.319 22.424 149.791 22.872C149.279 23.32 148.663 23.664 147.943 23.904C147.239 24.128 146.479 24.24 145.663 24.24ZM158.53 24.24C157.538 24.24 156.65 23.992 155.866 23.496C155.098 23 154.49 22.288 154.042 21.36C153.61 20.432 153.394 19.32 153.394 18.024C153.394 16.696 153.626 15.568 154.09 14.64C154.554 13.696 155.178 12.984 155.962 12.504C156.762 12.008 157.658 11.76 158.65 11.76C159.706 11.76 160.578 12.064 161.266 12.672C161.954 13.28 162.402 14.064 162.61 15.024L162.298 15.408V6.744H165.586V24H162.634L162.418 20.352L162.826 20.544C162.714 21.296 162.458 21.952 162.058 22.512C161.658 23.056 161.154 23.48 160.546 23.784C159.938 24.088 159.266 24.24 158.53 24.24ZM159.49 21.72C160.066 21.72 160.562 21.576 160.978 21.288C161.394 20.984 161.714 20.544 161.938 19.968C162.178 19.392 162.298 18.704 162.298 17.904C162.298 17.136 162.186 16.488 161.962 15.96C161.738 15.416 161.418 15 161.002 14.712C160.586 14.424 160.098 14.28 159.538 14.28C158.642 14.28 157.938 14.6 157.426 15.24C156.93 15.864 156.682 16.784 156.682 18C156.682 19.216 156.93 20.144 157.426 20.784C157.922 21.408 158.61 21.72 159.49 21.72ZM180.105 9.144L180.489 11.496C180.425 11.496 180.353 11.496 180.273 11.496C180.209 11.48 180.137 11.472 180.057 11.472C179.321 11.472 178.769 11.64 178.401 11.976C178.033 12.296 177.849 12.744 177.849 13.32L176.505 12.768C176.505 12.128 176.633 11.536 176.889 10.992C177.145 10.432 177.521 9.984 178.017 9.648C178.529 9.312 179.137 9.144 179.841 9.144C179.873 9.144 179.913 9.144 179.961 9.144C180.009 9.144 180.057 9.144 180.105 9.144ZM176.169 21.744C177.465 21.744 178.465 22.024 179.169 22.584C179.873 23.144 180.225 23.928 180.225 24.936C180.225 25.848 179.961 26.616 179.432 27.24C178.905 27.88 178.161 28.36 177.201 28.68C176.257 29 175.161 29.16 173.913 29.16C171.849 29.16 170.337 28.872 169.377 28.296C168.433 27.72 167.961 26.968 167.961 26.04C167.961 25.384 168.209 24.832 168.705 24.384C169.217 23.936 170.057 23.688 171.225 23.64L171.105 24.024C170.273 23.88 169.633 23.608 169.185 23.208C168.753 22.792 168.537 22.224 168.537 21.504C168.537 20.768 168.817 20.168 169.377 19.704C169.953 19.224 170.729 18.944 171.705 18.864L173.145 19.536H172.809C172.121 19.584 171.633 19.728 171.345 19.968C171.073 20.192 170.937 20.448 170.937 20.736C170.937 21.072 171.065 21.328 171.321 21.504C171.593 21.664 171.977 21.744 172.473 21.744H176.169ZM173.937 26.904C174.769 26.904 175.449 26.832 175.977 26.688C176.521 26.544 176.921 26.36 177.177 26.136C177.449 25.912 177.585 25.664 177.585 25.392C177.585 25.088 177.465 24.84 177.225 24.648C176.985 24.472 176.553 24.384 175.929 24.384H171.873C171.489 24.384 171.169 24.48 170.913 24.672C170.673 24.864 170.553 25.128 170.553 25.464C170.553 25.912 170.849 26.264 171.441 26.52C172.049 26.776 172.881 26.904 173.937 26.904ZM173.961 11.76C175.081 11.76 176.049 11.928 176.865 12.264C177.697 12.584 178.329 13.048 178.761 13.656C179.209 14.264 179.432 14.992 179.432 15.84C179.432 16.672 179.209 17.392 178.761 18C178.329 18.608 177.697 19.08 176.865 19.416C176.049 19.736 175.081 19.896 173.961 19.896C172.185 19.896 170.825 19.536 169.881 18.816C168.953 18.08 168.489 17.088 168.489 15.84C168.489 14.992 168.705 14.264 169.137 13.656C169.585 13.048 170.217 12.584 171.033 12.264C171.849 11.928 172.825 11.76 173.961 11.76ZM173.961 13.824C173.321 13.824 172.793 14 172.377 14.352C171.961 14.704 171.753 15.192 171.753 15.816C171.753 16.44 171.961 16.936 172.377 17.304C172.793 17.656 173.321 17.832 173.961 17.832C174.601 17.832 175.121 17.656 175.521 17.304C175.937 16.936 176.145 16.44 176.145 15.816C176.145 15.192 175.937 14.704 175.521 14.352C175.121 14 174.601 13.824 173.961 13.824ZM187.78 24.24C186.516 24.24 185.412 23.992 184.468 23.496C183.54 23 182.82 22.288 182.308 21.36C181.796 20.432 181.54 19.312 181.54 18C181.54 16.688 181.796 15.568 182.308 14.64C182.82 13.712 183.532 13 184.444 12.504C185.372 12.008 186.428 11.76 187.612 11.76C188.828 11.76 189.86 12.008 190.708 12.504C191.556 12.984 192.204 13.648 192.652 14.496C193.1 15.328 193.324 16.28 193.324 17.352C193.324 17.672 193.316 17.976 193.3 18.264C193.284 18.552 193.26 18.808 193.228 19.032H183.652V16.752H191.788L190.204 17.328C190.204 16.32 189.972 15.544 189.508 15C189.06 14.456 188.42 14.184 187.588 14.184C186.98 14.184 186.452 14.328 186.004 14.616C185.572 14.904 185.244 15.336 185.02 15.912C184.796 16.472 184.684 17.184 184.684 18.048C184.684 18.896 184.804 19.6 185.044 20.16C185.3 20.704 185.652 21.112 186.1 21.384C186.564 21.656 187.116 21.792 187.756 21.792C188.46 21.792 189.028 21.656 189.46 21.384C189.892 21.112 190.228 20.736 190.468 20.256L193.084 21.264C192.828 21.888 192.436 22.424 191.908 22.872C191.396 23.32 190.78 23.664 190.06 23.904C189.356 24.128 188.596 24.24 187.78 24.24Z" fill="black"/>
<path d="M1.70831e-07 17.6744L8.78424 8.83721L17.5685 2.09502e-07L27 3.21972e-07L27 8.24807L20.9589 8.24807L8.19861 21.0852L8.19861 23.7519L27 23.7519L27 32L0 32L1.70831e-07 17.6744ZM9.36986 8.24807L2.83239e-07 8.24807L3.81596e-07 0L9.36986 1.11734e-07L9.36986 8.24807Z" fill="#8548E8"/>
</svg>
